<svg width="110" height="125" viewBox="0 0 110 125" fill="none" xmlns="http://www.w3.org/2000/svg">
<path opacity="0.0946098" d="M105.178 96.7127L105.176 96.7143L59.3492 123.341C59.3487 123.341 59.3482 123.342 59.3478 123.342C56.6504 124.886 53.3496 124.886 50.6522 123.342C50.6518 123.342 50.6513 123.341 50.6508 123.341L4.83049 96.7179C4.82941 96.7173 4.82832 96.7166 4.82724 96.716C2.17245 95.1205 0.5 92.2627 0.5 89.1284V35.8716C0.5 32.7321 2.1768 29.8287 4.82445 28.2856C4.82459 28.2856 4.82472 28.2855 4.82486 28.2854L50.6508 1.65889C50.6513 1.65862 50.6518 1.65835 50.6522 1.65808C53.3496 0.113979 56.6504 0.113974 59.3477 1.65806C59.3482 1.65834 59.3487 1.65861 59.3492 1.65889L105.17 28.2821C105.171 28.2827 105.172 28.2833 105.173 28.2839C107.828 29.8793 109.5 32.7372 109.5 35.8716V89.1284C109.5 92.2723 107.869 95.1719 105.178 96.7127Z" fill="url(#paint0_linear_588_4)" stroke="black"/>
<defs>
<linearGradient id="paint0_linear_588_4" x1="55.015" y1="125" x2="55.015" y2="-0.0182118" gradientUnits="userSpaceOnUse">
<stop stop-color="#D4145A"/>
<stop offset="1" stop-color="#2E3192"/>
</linearGradient>
</defs>
</svg>
